HIERARCHY
ROOT Hips
{
	OFFSET 0.000000 0.000000 0.000000
	CHANNELS 6 Xposition Yposition Zposition Zrotation Yrotation Xrotation 
	JOINT LowerBack
	{
		OFFSET 0.000000 0.000000 0.000000
		CHANNELS 3 Zrotation Yrotation Xrotation
		JOINT Spine
		{
			OFFSET 0.028270 2.035590 -0.193380
			CHANNELS 3 Zrotation Yrotation Xrotation
			JOINT Spine1
			{
				OFFSET 0.056720 2.048850 -0.042750
				CHANNELS 3 Zrotation Yrotation Xrotation
				JOINT Neck
				{
					OFFSET 0.000000 0.000000 0.000000
					CHANNELS 3 Zrotation Yrotation Xrotation
					JOINT Neck1
					{
						OFFSET -0.054170 1.746240 0.172020
						CHANNELS 3 Zrotation Yrotation Xrotation
						JOINT Head
						{
							OFFSET 0.104070 1.761360 -0.123970
							CHANNELS 3 Zrotation Yrotation Xrotation
							End Site
							{
								OFFSET 0.000000 0.000000 0.000000
							}
						}
					}
				}
				JOINT LeftShoulder
				{
					OFFSET 0.000000 0.000000 0.000000
					CHANNELS 3 Zrotation Yrotation Xrotation
					JOINT LeftArm
					{
						OFFSET 3.362410 1.200890 -0.311210
						CHANNELS 3 Zrotation Yrotation Xrotation
						JOINT LeftForeArm
						{
							OFFSET 4.983000 -0.000000 -0.000000
							CHANNELS 3 Zrotation Yrotation Xrotation
							JOINT LeftHand
							{
								OFFSET 3.483560 -0.000000 -0.000000
								CHANNELS 3 Zrotation Yrotation Xrotation
								JOINT LeftFingerBase
								{
									OFFSET 0.000000 0.000000 0.000000
									CHANNELS 3 Zrotation Yrotation Xrotation
									JOINT LeftHandIndex1
									{
										OFFSET 0.715260 -0.000000 -0.000000
										CHANNELS 3 Zrotation Yrotation Xrotation
										End Site
										{
											OFFSET 0.000000 0.000000 0.000000
										}
									}
								}
								JOINT LThumb
								{
									OFFSET 0.000000 0.000000 0.000000
									CHANNELS 3 Zrotation Yrotation Xrotation
									End Site
									{
										OFFSET 0.000000 0.000000 0.000000
									}
								}
							}
						}
					}
				}
				JOINT RightShoulder
				{
					OFFSET 0.000000 0.000000 0.000000
					CHANNELS 3 Zrotation Yrotation Xrotation
					JOINT RightArm
					{
						OFFSET -3.136600 1.374050 -0.404650
						CHANNELS 3 Zrotation Yrotation Xrotation
						JOINT RightForeArm
						{
							OFFSET -5.241900 -0.000000 -0.000000
							CHANNELS 3 Zrotation Yrotation Xrotation
							JOINT RightHand
							{
								OFFSET -3.444170 -0.000000 -0.000000
								CHANNELS 3 Zrotation Yrotation Xrotation
								JOINT RightFingerBase
								{
									OFFSET 0.000000 0.000000 0.000000
									CHANNELS 3 Zrotation Yrotation Xrotation
									JOINT RightHandIndex1
									{
										OFFSET -0.622530 -0.000000 -0.000000
										CHANNELS 3 Zrotation Yrotation Xrotation
										End Site
										{
											OFFSET 0.000000 0.000000 0.000000
										}
									}
								}
								JOINT RThumb
								{
									OFFSET 0.000000 0.000000 0.000000
									CHANNELS 3 Zrotation Yrotation Xrotation
									End Site
									{
										OFFSET 0.000000 0.000000 0.000000
									}
								}
							}
						}
					}
				}
			}
		}
	}
}
}
MOTION
Frames: 18
Frame Time: 0.008333
-1.467718 17.282114 0.941876 16.537111 -88.035667 0.984331 -6.874576 -1.868333 4.627150 -2.470634 -1.551396 -2.103326 -8.020629 -1.601191 0.038794 10.150053 -3.051629 -0.731844 -4.549889 -0.389161 1.581920 0.000000 0.000000 0.000000 -2.952886 -6.034567 2.027236 -60.683459 -8.451933 8.215045 -3.761806 -18.142228 0.002438 5.102597 -3.061925 -0.140095 -0.089681 0.037796 -0.000000 0.000000 0.000000 0.000000 0.000000 0.000000 0.000000 19.453226 -4.436378 0.465958 75.198791 0.288275 0.735037 2.494008 22.199109 0.009032 -2.422966 11.324962 -0.247580 0.060060 -0.086500 0.000000 0.000000 0.000000 0.000000 0.000000 0.000000 0.000000 
-1.471280 17.283504 0.946675 11.710177 -87.182920 5.369260 -6.917780 -1.975452 4.808666 -2.479687 -1.656823 -2.052145 -8.018206 -1.697657 0.076262 10.046193 -3.196573 -0.762449 -4.559981 -0.389893 1.571985 0.000000 0.000000 0.000000 -3.047902 -5.952838 2.025386 -60.403145 -8.187407 8.018627 -3.789965 -17.703948 0.002614 5.117668 -3.010220 -0.138006 -0.089414 0.034397 -0.000000 0.000000 0.000000 0.000000 0.000000 0.000000 0.000000 19.380380 -4.647663 0.433172 75.308169 -0.297118 0.682610 2.518804 21.922006 0.009240 -2.261082 11.164855 -0.228090 0.059949 -0.081985 0.000000 0.000000 0.000000 0.000000 0.000000 0.000000 0.000000 
-1.474397 17.285311 0.951473 8.179055 -86.390349 8.456504 -6.916920 -2.060905 4.985392 -2.481006 -1.742569 -2.002253 -8.019051 -1.774751 0.117094 9.939728 -3.340647 -0.797695 -4.570637 -0.390582 1.560753 0.000000 0.000000 0.000000 -3.137109 -5.834026 2.018321 -60.131969 -7.976855 7.861953 -3.817475 -17.252872 0.002781 5.124441 -2.955926 -0.135517 -0.089242 0.031187 -0.000000 0.000000 0.000000 0.000000 0.000000 0.000000 0.000000 19.310131 -4.845010 0.400914 75.410419 -0.867431 0.653525 2.545973 21.645419 0.009454 -2.096755 11.008182 -0.208799 0.059983 -0.077638 0.000000 0.000000 0.000000 0.000000 0.000000 0.000000 0.000000 
-1.477076 17.287559 0.956339 5.354309 -85.639985 10.839807 -6.884442 -2.130784 5.155257 -2.476805 -1.814065 -1.956364 -8.022805 -1.838380 0.151041 9.830137 -3.469659 -0.825970 -4.582537 -0.391411 1.551529 0.000000 0.000000 0.000000 -3.220345 -5.731854 2.010229 -59.868886 -7.751163 7.715697 -3.843025 -16.835148 0.002947 5.115445 -2.898168 -0.132527 -0.089041 0.028041 -0.000000 0.000000 0.000000 0.000000 0.000000 0.000000 0.000000 19.241472 -5.017866 0.373284 75.509305 -1.442106 0.604819 2.575227 21.381216 0.009650 -1.918821 10.847899 -0.188706 0.060019 -0.073499 0.000000 0.000000 0.000000 0.000000 0.000000 0.000000 0.000000 
-1.478954 17.290272 0.961395 2.947198 -84.929327 12.804045 -6.825766 -2.188020 5.324668 -2.468038 -1.873731 -1.911373 -8.029244 -1.890465 0.184470 9.717260 -3.590958 -0.855917 -4.595484 -0.392257 1.541720 0.000000 0.000000 0.000000 -3.303362 -5.611810 2.001318 -59.608169 -7.561278 7.617033 -3.868484 -16.426629 0.003111 5.087918 -2.839035 -0.129034 -0.088970 0.025067 -0.000000 0.000000 0.000000 0.000000 0.000000 0.000000 0.000000 19.176032 -5.174099 0.347138 75.601046 -2.000964 0.559210 2.605802 21.122664 0.009831 -1.740026 10.689325 -0.169016 0.060118 -0.069554 0.000000 0.000000 0.000000 0.000000 0.000000 0.000000 0.000000 
-1.479980 17.293498 0.966666 0.796612 -84.255154 14.510442 -6.742589 -2.233692 5.495749 -2.455316 -1.922598 -1.869220 -8.039020 -1.932506 0.208136 9.601119 -3.688977 -0.877176 -4.610100 -0.393266 1.534176 0.000000 0.000000 0.000000 -3.385918 -5.516743 1.995106 -59.347942 -7.350453 7.538863 -3.892946 -16.064207 0.003270 5.032870 -2.773841 -0.124644 -0.088920 0.022153 -0.000000 0.000000 0.000000 0.000000 0.000000 0.000000 0.000000 19.113065 -5.299147 0.326618 75.689262 -2.559026 0.483209 2.637584 20.875499 0.009983 -1.553860 10.530803 -0.149223 0.060184 -0.065855 0.000000 0.000000 0.000000 0.000000 0.000000 0.000000 0.000000 
-1.479896 17.297213 0.972256 -1.209524 -83.614972 16.070677 -6.633408 -2.270160 5.671033 -2.438228 -1.962889 -1.827066 -8.051868 -1.966212 0.230803 9.480865 -3.775550 -0.900498 -4.625924 -0.394278 1.525830 0.000000 0.000000 0.000000 -3.473893 -5.404429 1.990580 -59.083428 -7.180061 7.522617 -3.918286 -15.714942 0.003427 4.947829 -2.706861 -0.119451 -0.089062 0.019426 -0.000000 0.000000 0.000000 0.000000 0.000000 0.000000 0.000000 19.052743 -5.405592 0.307742 75.768847 -3.090722 0.407423 2.670104 20.628940 0.010117 -1.374918 10.377368 -0.130632 0.060322 -0.062371 0.000000 0.000000 0.000000 0.000000 0.000000 0.000000 0.000000 
-1.478760 17.301435 0.978112 -3.115224 -83.005662 17.532054 -6.500103 -2.298190 5.848175 -2.417413 -1.995451 -1.788188 -8.068562 -1.993079 0.241621 9.357179 -3.835285 -0.912744 -4.643799 -0.395496 1.520411 0.000000 0.000000 0.000000 -3.563152 -5.331582 1.990899 -58.815306 -6.973814 7.525578 -3.943236 -15.422659 0.003578 4.824144 -2.632659 -0.113256 -0.089248 0.016719 -0.000000 0.000000 0.000000 0.000000 0.000000 0.000000 0.000000 18.994961 -5.479687 0.295576 75.844271 -3.614062 0.296239 2.703470 20.387667 0.010226 -1.195189 10.225772 -0.112540 0.060447 -0.059148 0.000000 0.000000 0.000000 0.000000 0.000000 0.000000 0.000000 
-1.476178 17.306132 0.984304 -4.986486 -82.427909 18.954984 -6.340248 -2.318859 6.034548 -2.392268 -2.021226 -1.748352 -8.088643 -2.013375 0.251329 9.229597 -3.877953 -0.926349 -4.662782 -0.396692 1.514246 0.000000 0.000000 0.000000 -3.659463 -5.239226 1.994689 -58.538683 -6.818057 7.594508 -3.970235 -15.136308 0.003713 4.660684 -2.552816 -0.106061 -0.089708 0.014252 -0.000000 0.000000 0.000000 0.000000 0.000000 0.000000 0.000000 18.938819 -5.530888 0.284828 75.911028 -4.102437 0.183672 2.737162 20.139017 0.010322 -1.028679 10.084061 -0.096247 0.060652 -0.056142 0.000000 0.000000 0.000000 0.000000 0.000000 0.000000 0.000000 
-1.472186 17.311249 0.990816 -6.850770 -81.878582 20.368774 -6.153174 -2.333640 6.231050 -2.362584 -2.041640 -1.706476 -8.111818 -2.028361 0.263342 9.098146 -3.906574 -0.944497 -4.682477 -0.397793 1.506402 0.000000 0.000000 0.000000 -3.763896 -5.112448 2.001634 -58.252292 -6.737782 7.739999 -3.999989 -14.838604 0.003828 4.456274 -2.467951 -0.098063 -0.090517 0.012105 -0.000000 0.000000 0.000000 0.000000 0.000000 0.000000 0.000000 18.883483 -5.563433 0.273846 75.967860 -4.544759 0.080599 2.770934 19.876384 0.010413 -0.880162 9.954556 -0.081954 0.060964 -0.053332 0.000000 0.000000 0.000000 0.000000 0.000000 0.000000 0.000000 
-1.466870 17.316711 0.997385 -8.674648 -81.353263 21.744937 -5.947597 -2.343111 6.429460 -2.330280 -2.057269 -1.668466 -8.138808 -2.039656 0.260849 8.964999 -3.902106 -0.946213 -4.704137 -0.399138 1.502934 0.000000 0.000000 0.000000 -3.864570 -5.045120 2.015187 -57.961672 -6.605610 7.879124 -4.030180 -14.595919 0.003916 4.207379 -2.370853 -0.088965 -0.091412 0.009990 -0.000000 0.000000 0.000000 0.000000 0.000000 0.000000 0.000000 18.829623 -5.560596 0.270590 76.022377 -4.972249 -0.063835 2.805197 19.608675 0.010485 -0.733864 9.829403 -0.068261 0.061256 -0.050771 0.000000 0.000000 0.000000 0.000000 0.000000 0.000000 0.000000 
-1.460232 17.322465 1.003963 -10.474234 -80.850029 23.099393 -5.724461 -2.348466 6.632112 -2.295368 -2.069162 -1.632303 -8.168996 -2.047978 0.249688 8.830588 -3.870360 -0.937186 -4.727076 -0.400602 1.502160 0.000000 0.000000 0.000000 -3.962222 -5.009133 2.034302 -57.665998 -6.465917 8.025524 -4.061916 -14.376472 0.003968 3.918981 -2.262483 -0.079066 -0.092506 0.008047 -0.000000 0.000000 0.000000 0.000000 0.000000 0.000000 0.000000 18.776479 -5.528972 0.272169 76.072850 -5.370953 -0.232039 2.839699 19.328647 0.010545 -0.594650 9.711739 -0.055668 0.061564 -0.048422 0.000000 0.000000 0.000000 0.000000 0.000000 0.000000 0.000000 
-1.452415 17.328414 1.010407 -12.236313 -80.366214 24.422851 -5.488611 -2.351450 6.837441 -2.258578 -2.078819 -1.596585 -8.201710 -2.054513 0.235912 8.696194 -3.819510 -0.923370 -4.750782 -0.402086 1.502384 0.000000 0.000000 0.000000 -4.055574 -4.978721 2.057402 -57.364434 -6.358231 8.192356 -4.095888 -14.151702 0.003980 3.599998 -2.145727 -0.068966 -0.093884 0.006389 -0.000000 0.000000 0.000000 0.000000 0.000000 0.000000 0.000000 18.725339 -5.477993 0.275583 76.116969 -5.728336 -0.406347 2.874001 19.031422 0.010598 -0.466194 9.601713 -0.044175 0.061913 -0.046236 0.000000 0.000000 0.000000 0.000000 0.000000 0.000000 0.000000 
-1.443411 17.334470 1.016552 -13.948090 -79.899198 25.703264 -5.245379 -2.353206 7.043800 -2.220808 -2.087182 -1.561290 -8.236526 -2.060156 0.220371 8.563134 -3.752333 -0.904945 -4.775047 -0.403578 1.503567 0.000000 0.000000 0.000000 -4.141836 -4.954057 2.083891 -57.058297 -6.286248 8.368549 -4.131851 -13.914052 0.003950 3.260544 -2.021748 -0.058965 -0.095533 0.005052 -0.000000 0.000000 0.000000 0.000000 0.000000 0.000000 0.000000 18.676758 -5.411508 0.280248 76.154995 -6.041828 -0.583775 2.907854 18.716804 0.010646 -0.347210 9.497749 -0.033780 0.062292 -0.044189 0.000000 0.000000 0.000000 0.000000 0.000000 0.000000 0.000000 
-1.433515 17.340550 1.022112 -15.568605 -79.446654 26.904767 -5.005390 -2.354123 7.244480 -2.184261 -2.094522 -1.530889 -8.273896 -2.065941 0.190456 8.434305 -3.653434 -0.866023 -4.800801 -0.405327 1.510274 0.000000 0.000000 0.000000 -4.211185 -5.003226 2.116358 -56.752730 -6.157534 8.483927 -4.167946 -13.707418 0.003876 2.910239 -1.886336 -0.049164 -0.097231 0.003849 -0.000000 0.000000 0.000000 0.000000 0.000000 0.000000 0.000000 18.632978 -5.315528 0.291971 76.193805 -6.339621 -0.811373 2.941620 18.396407 0.010669 -0.220522 9.392001 -0.022986 0.062568 -0.042325 0.000000 0.000000 0.000000 0.000000 0.000000 0.000000 0.000000 
-1.422498 17.346606 1.027477 -17.172365 -79.003949 28.096144 -4.753134 -2.355614 7.450895 -2.145330 -2.102198 -1.496765 -8.311866 -2.071738 0.171023 8.305695 -3.556737 -0.836345 -4.825669 -0.406822 1.514001 0.000000 0.000000 0.000000 -4.280076 -5.001691 2.149184 -56.439602 -6.151828 8.636768 -4.206071 -13.434160 0.003762 2.567691 -1.750824 -0.040361 -0.099273 0.003248 -0.000000 0.000000 0.000000 0.000000 0.000000 0.000000 0.000000 18.588308 -5.223885 0.299332 76.220364 -6.565796 -1.001902 2.974453 18.051507 0.010696 -0.111935 9.294691 -0.013891 0.062949 -0.040525 0.000000 0.000000 0.000000 0.000000 0.000000 0.000000 0.000000 
-1.410807 17.352525 1.032088 -18.662243 -78.571846 29.190180 -4.511733 -2.358126 7.648621 -2.108839 -2.110370 -1.466818 -8.351589 -2.078937 0.141399 8.183033 -3.438235 -0.790825 -4.851579 -0.408502 1.521994 0.000000 0.000000 0.000000 -4.331830 -5.059211 2.186261 -56.127032 -6.113161 8.722173 -4.243203 -13.175020 0.003612 2.245073 -1.611084 -0.032660 -0.101285 0.002875 -0.000000 0.000000 0.000000 0.000000 0.000000 0.000000 0.000000 18.550057 -5.113970 0.311639 76.245568 -6.769867 -1.234438 3.006542 17.706079 0.010698 0.004849 9.191832 -0.004299 0.063222 -0.038873 0.000000 0.000000 0.000000 0.000000 0.000000 0.000000 0.000000 
-1.398444 17.358302 1.036107 -20.064961 -78.147889 30.212280 -4.275738 -2.361911 7.841170 -2.073569 -2.119296 -1.438949 -8.392538 -2.087444 0.107174 8.065123 -3.307104 -0.736681 -4.877911 -0.410241 1.532213 0.000000 0.000000 0.000000 -4.372719 -5.147788 2.226304 -55.812401 -6.081834 8.756653 -4.278939 -12.910107 0.003436 1.958093 -1.472402 -0.026059 -0.103257 0.002846 -0.000000 0.000000 0.000000 0.000000 0.000000 0.000000 0.000000 18.516252 -4.994944 0.326431 76.265551 -6.939674 -1.490363 3.037584 17.360084 0.010680 0.123870 9.085641 0.005195 0.063432 -0.037354 0.000000 0.000000 0.000000 0.000000 0.000000 0.000000 0.000000 
